{
  "accessors": [
    {
      "bufferView": 2,
      "componentType": 5126,
      "count": 39217,
      "max": [
        15.964321136474609,
        -0.12189800292253494,
        22.310939788818359
      ],
      "min": [
        -11.811796188354492,
        -22.694881439208984,
        -30.627286911010742
      ],
      "type": "VEC3"
    },
    {
      "bufferView": 2,
      "byteOffset": 470604,
      "componentType": 5126,
      "count": 39217,
      "max": [
        0.99997222423553467,
        0.99995344877243042,
        0.99918097257614136
      ],
      "min": [
        -0.99984890222549438,
        -0.99997097253799438,
        -0.99947625398635864
      ],
      "type": "VEC3"
    },
    {
      "bufferView": 3,
      "componentType": 5126,
      "count": 39217,
      "max": [
        1,
        1,
        1,
        1
      ],
      "min": [
        1,
        1,
        1,
        1
      ],
      "type": "VEC4"
    },
    {
      "bufferView": 1,
      "componentType": 5126,
      "count": 39217,
      "max": [
        0.99971497058868408,
        0.33750501275062561
      ],
      "min": [
        7.7999997301958501e-05,
        0.00031900001340545714
      ],
      "type": "VEC2"
    },
    {
      "bufferView": 0,
      "componentType": 5125,
      "count": 84528,
      "max": [
        39216
      ],
      "min": [
        0
      ],
      "type": "SCALAR"
    }
  ],
  "asset": {
    "extras": {
      "author": "dorusvandenoord (https://sketchfab.com/dorusvandenoord)",
      "license": "CC-BY-4.0 (http://creativecommons.org/licenses/by/4.0/)",
      "source": "https://sketchfab.com/3d-models/nike-air-presto-x-off-white-black-7bffa20a02bb4be19832570cf7fabccb",
      "title": "Nike Air Presto x Off-White Black"
    },
    "generator": "Sketchfab-7.57.0",
    "version": "2.0"
  },
  "bufferViews": [
    {
      "buffer": 0,
      "byteLength": 338112,
      "byteOffset": 0,
      "name": "floatBufferViews",
      "target": 34963
    },
    {
      "buffer": 0,
      "byteLength": 313736,
      "byteOffset": 338112,
      "byteStride": 8,
      "name": "floatBufferViews",
      "target": 34962
    },
    {
      "buffer": 0,
      "byteLength": 941208,
      "byteOffset": 651848,
      "byteStride": 12,
      "name": "floatBufferViews",
      "target": 34962
    },
    {
      "buffer": 0,
      "byteLength": 627472,
      "byteOffset": 1593056,
      "byteStride": 16,
      "name": "floatBufferViews",
      "target": 34962
    }
  ],
  "buffers": [
    {
      "byteLength": 2220528,
      "uri": "scene.bin"
    }
  ],
  "extensionsUsed": [
    "KHR_materials_unlit"
  ],
  "images": [
    {
      "uri": "textures/material_0_baseColor.jpeg"
    }
  ],
  "materials": [
    {
      "doubleSided": true,
      "emissiveFactor": [
        0,
        0,
        0
      ],
      "extensions": {
        "KHR_materials_unlit": {}
      },
      "name": "material_0",
      "pbrMetallicRoughness": {
        "baseColorFactor": [
          1,
          1,
          1,
          1
        ],
        "baseColorTexture": {
          "index": 0,
          "texCoord": 0
        },
        "metallicFactor": 0,
        "roughnessFactor": 1
      }
    }
  ],
  "meshes": [
    {
      "primitives": [
        {
          "attributes": {
            "COLOR_0": 2,
            "NORMAL": 1,
            "POSITION": 0,
            "TEXCOORD_0": 3
          },
          "indices": 4,
          "material": 0,
          "mode": 4
        }
      ]
    }
  ],
  "nodes": [
    {
      "children": [
        1
      ],
      "name": "RootNode (gltf orientation matrix)",
      "rotation": [
        -0.70710678118654746,
        -0,
        -0,
        0.70710678118654757
      ]
    },
    {
      "children": [
        2
      ],
      "matrix": [
        0.99956989288330078,
        -0.00095375551609322429,
        0.029310654848814011,
        0,
        0.029297806322574615,
        -0.011468811891973019,
        -0.99950492382049561,
        0,
        0.0012894417159259319,
        0.99993377923965454,
        -0.011435936205089092,
        0,
        0.34049591422080994,
        -7.3794240951538086,
        -15.669282913208008,
        1
      ],
      "name": "RootNode (model correction matrix)"
    },
    {
      "children": [
        3
      ],
      "name": "air_presto.obj.cleaner.materialmerger.gles"
    },
    {
      "mesh": 0,
      "name": ""
    }
  ],
  "samplers": [
    {
      "magFilter": 9729,
      "minFilter": 9987,
      "wrapS": 10497,
      "wrapT": 10497
    }
  ],
  "scene": 0,
  "scenes": [
    {
      "name": "OSG_Scene",
      "nodes": [
        0
      ]
    }
  ],
  "textures": [
    {
      "sampler": 0,
      "source": 0
    }
  ]
}

